<svg width="64" height="64" viewBox="0 0 64 64" fill="none" xmlns="http://www.w3.org/2000/svg">
  <defs>
    <linearGradient id="g" x1="0" y1="0" x2="64" y2="64" gradientUnits="userSpaceOnUse">
      <stop stop-color="#A855F7"/>
      <stop offset="0.55" stop-color="#EC4899"/>
      <stop offset="1" stop-color="#3B82F6"/>
    </linearGradient>
  </defs>
  <rect x="4" y="4" width="56" height="56" rx="14" fill="url(#g)"/>
  <path d="M21 25.2C21 21.8 23.8 19 27.2 19H39.5V24.2H28.2C26.9 24.2 25.8 25.3 25.8 26.6C25.8 27.9 26.9 29 28.2 29H35.8C39.7 29 43 32.3 43 36.2C43 40.1 39.7 43.4 35.8 43.4H22.5V38.2H34.8C36.1 38.2 37.2 37.1 37.2 35.8C37.2 34.5 36.1 33.4 34.8 33.4H27.2C23.8 33.4 21 30.6 21 27.2V25.2Z" fill="white"/>
  <circle cx="48.8" cy="16.2" r="2.2" fill="#FBCFE8"/>
</svg>
